<svg xmlns="http://www.w3.org/2000/svg" viewBox="0 0 1440 900" width="1440" height="900" role="img" aria-labelledby="art-title art-desc">
<title id="art-title">CG Agro Farm website</title>
<desc id="art-desc">Agricultural business homepage with a photographic hero, service cards and a footer.</desc>
<rect width="1440" height="900" fill="#0D0D0D"/>
<rect x="72" y="52" width="1296" height="34" rx="12" fill="#1A1A1A" stroke="#3A3A3A" stroke-width="1" opacity="1"/>
<circle cx="94" cy="69" r="5" fill="#3A3A3A" opacity="1"/>
<circle cx="112" cy="69" r="5" fill="#3A3A3A" opacity="1"/>
<circle cx="130" cy="69" r="5" fill="#3A3A3A" opacity="1"/>
<rect x="156" y="61" width="360" height="16" rx="7" fill="#0D0D0D" stroke="#3A3A3A" stroke-width="1" opacity="1"/>
<text x="170" y="72.5" font-family="ui-monospace, 'JetBrains Mono', 'SFMono-Regular', Menlo, Consolas, monospace" font-size="9" font-weight="500" fill="#888888" letter-spacing="1" text-anchor="start" opacity="1">laxmich.com</text>
<rect x="1218" y="62" width="60" height="14" rx="6" fill="#4ADE80" opacity="0.14"/>
<text x="1248" y="72.5" font-family="ui-monospace, 'JetBrains Mono', 'SFMono-Regular', Menlo, Consolas, monospace" font-size="9" font-weight="500" fill="#4ADE80" letter-spacing="1.4" text-anchor="middle" opacity="1">LIVE</text>
<rect x="73" y="87" width="1294" height="761" rx="0" fill="#0D0D0D" opacity="1"/>
<rect x="73" y="87" width="1294" height="62" rx="0" fill="#0D0D0D" opacity="1"/>
<line x1="73" y1="149" x2="1367" y2="149" stroke="#3A3A3A" stroke-width="1" opacity="1"/>
<rect x="145" y="107" width="24" height="24" rx="7" fill="#4ADE80" opacity="1"/>
<text x="179" y="123" font-family="ui-monospace, 'JetBrains Mono', 'SFMono-Regular', Menlo, Consolas, monospace" font-size="11" font-weight="500" fill="#FFFFFF" letter-spacing="1.6" text-anchor="start" opacity="1">SITENAME</text>
<text x="1019" y="123" font-family="ui-monospace, 'JetBrains Mono', 'SFMono-Regular', Menlo, Consolas, monospace" font-size="10.5" font-weight="500" fill="#FFFFFF" letter-spacing="0.4" text-anchor="middle" opacity="1">Home</text>,<text x="1111" y="123" font-family="ui-monospace, 'JetBrains Mono', 'SFMono-Regular', Menlo, Consolas, monospace" font-size="10.5" font-weight="500" fill="#A1A1AA" letter-spacing="0.4" text-anchor="middle" opacity="1">Services</text>,<text x="1203" y="123" font-family="ui-monospace, 'JetBrains Mono', 'SFMono-Regular', Menlo, Consolas, monospace" font-size="10.5" font-weight="500" fill="#A1A1AA" letter-spacing="0.4" text-anchor="middle" opacity="1">About</text>,<text x="1295" y="123" font-family="ui-monospace, 'JetBrains Mono', 'SFMono-Regular', Menlo, Consolas, monospace" font-size="10.5" font-weight="500" fill="#A1A1AA" letter-spacing="0.4" text-anchor="middle" opacity="1">Contact</text>
<rect x="1219" y="104" width="76" height="28" rx="7" fill="#4ADE80" opacity="0.14"/>
<text x="1257" y="122" font-family="ui-monospace, 'JetBrains Mono', 'SFMono-Regular', Menlo, Consolas, monospace" font-size="9" font-weight="500" fill="#4ADE80" letter-spacing="1.1" text-anchor="middle" opacity="1">ENQUIRE</text>
<rect x="73" y="149" width="1294" height="380" rx="0" fill="#0D0D0D" opacity="1"/>
<g opacity="0.25" stroke="#262626" stroke-width="1">
<line x1="0" y1="0" x2="0" y2="380" stroke="#3A3A3A" stroke-width="1" opacity="1"/>,<line x1="56" y1="0" x2="56" y2="380" stroke="#3A3A3A" stroke-width="1" opacity="1"/>,<line x1="112" y1="0" x2="112" y2="380" stroke="#3A3A3A" stroke-width="1" opacity="1"/>,<line x1="168" y1="0" x2="168" y2="380" stroke="#3A3A3A" stroke-width="1" opacity="1"/>,<line x1="224" y1="0" x2="224" y2="380" stroke="#3A3A3A" stroke-width="1" opacity="1"/>,<line x1="280" y1="0" x2="280" y2="380" stroke="#3A3A3A" stroke-width="1" opacity="1"/>,<line x1="336" y1="0" x2="336" y2="380" stroke="#3A3A3A" stroke-width="1" opacity="1"/>,<line x1="392" y1="0" x2="392" y2="380" stroke="#3A3A3A" stroke-width="1" opacity="1"/>,<line x1="448" y1="0" x2="448" y2="380" stroke="#3A3A3A" stroke-width="1" opacity="1"/>,<line x1="504" y1="0" x2="504" y2="380" stroke="#3A3A3A" stroke-width="1" opacity="1"/>,<line x1="560" y1="0" x2="560" y2="380" stroke="#3A3A3A" stroke-width="1" opacity="1"/>,<line x1="616" y1="0" x2="616" y2="380" stroke="#3A3A3A" stroke-width="1" opacity="1"/>,<line x1="672" y1="0" x2="672" y2="380" stroke="#3A3A3A" stroke-width="1" opacity="1"/>,<line x1="728" y1="0" x2="728" y2="380" stroke="#3A3A3A" stroke-width="1" opacity="1"/>,<line x1="784" y1="0" x2="784" y2="380" stroke="#3A3A3A" stroke-width="1" opacity="1"/>,<line x1="840" y1="0" x2="840" y2="380" stroke="#3A3A3A" stroke-width="1" opacity="1"/>,<line x1="896" y1="0" x2="896" y2="380" stroke="#3A3A3A" stroke-width="1" opacity="1"/>,<line x1="952" y1="0" x2="952" y2="380" stroke="#3A3A3A" stroke-width="1" opacity="1"/>,<line x1="1008" y1="0" x2="1008" y2="380" stroke="#3A3A3A" stroke-width="1" opacity="1"/>,<line x1="1064" y1="0" x2="1064" y2="380" stroke="#3A3A3A" stroke-width="1" opacity="1"/>,<line x1="1120" y1="0" x2="1120" y2="380" stroke="#3A3A3A" stroke-width="1" opacity="1"/>,<line x1="1176" y1="0" x2="1176" y2="380" stroke="#3A3A3A" stroke-width="1" opacity="1"/>,<line x1="1232" y1="0" x2="1232" y2="380" stroke="#3A3A3A" stroke-width="1" opacity="1"/>,<line x1="1288" y1="0" x2="1288" y2="380" stroke="#3A3A3A" stroke-width="1" opacity="1"/>,<line x1="1344" y1="0" x2="1344" y2="380" stroke="#3A3A3A" stroke-width="1" opacity="1"/>
<line x1="0" y1="0" x2="1294" y2="0" stroke="#3A3A3A" stroke-width="1" opacity="1"/>,<line x1="0" y1="56" x2="1294" y2="56" stroke="#3A3A3A" stroke-width="1" opacity="1"/>,<line x1="0" y1="112" x2="1294" y2="112" stroke="#3A3A3A" stroke-width="1" opacity="1"/>,<line x1="0" y1="168" x2="1294" y2="168" stroke="#3A3A3A" stroke-width="1" opacity="1"/>,<line x1="0" y1="224" x2="1294" y2="224" stroke="#3A3A3A" stroke-width="1" opacity="1"/>,<line x1="0" y1="280" x2="1294" y2="280" stroke="#3A3A3A" stroke-width="1" opacity="1"/>,<line x1="0" y1="336" x2="1294" y2="336" stroke="#3A3A3A" stroke-width="1" opacity="1"/>,<line x1="0" y1="392" x2="1294" y2="392" stroke="#3A3A3A" stroke-width="1" opacity="1"/>
</g>
<circle cx="747.2516345991753" cy="90.40199629962444" r="1.5964916818775237" fill="#3A3A3A" opacity="0.45136674530804155"/>,<circle cx="1044.2289262432605" cy="158.00414867699146" r="1.496316493023187" fill="#3A3A3A" opacity="0.5617992972489446"/>,<circle cx="105.52759416867048" cy="278.49354691803455" r="2.6190201342105865" fill="#3A3A3A" opacity="0.7234562755562365"/>,<circle cx="779.9350373977795" cy="282.2759299725294" r="2.173941323533654" fill="#3A3A3A" opacity="0.7106029085349291"/>,<circle cx="20.84561205888167" cy="118.33614245057106" r="1.2902289140038192" fill="#3A3A3A" opacity="0.6434396339114755"/>,<circle cx="1115.4359631612897" cy="189.78999942541122" r="2.4884074851870537" fill="#3A3A3A" opacity="0.8494403924793005"/>,<circle cx="782.6842630137689" cy="75.77733516693115" r="2.2459162496961653" fill="#3A3A3A" opacity="0.37954011422116307"/>,<circle cx="227.05017749685794" cy="167.7054137736559" r="2.6417901567183435" fill="#3A3A3A" opacity="0.38143026586622"/>,<circle cx="578.1074324194342" cy="162.52903200685978" r="2.4056405927985907" fill="#3A3A3A" opacity="0.7388206279370934"/>,<circle cx="1023.7586237406358" cy="273.06889936327934" r="1.8559701726771891" fill="#3A3A3A" opacity="0.5950492056086659"/>,<circle cx="147.548834183719" cy="288.22353437542915" r="1.4858246594667435" fill="#3A3A3A" opacity="0.8027205545455217"/>,<circle cx="296.19773160200566" cy="304.5615054666996" r="1.661545499227941" fill="#3A3A3A" opacity="0.8234781901352107"/>,<circle cx="89.40729152830318" cy="235.30826210975647" r="2.556715677957982" fill="#3A3A3A" opacity="0.8477264389162883"/>,<circle cx="25.780647785402834" cy="40.94753384590149" r="2.6395007017999887" fill="#3A3A3A" opacity="0.7614532356616109"/>
<text x="145" y="225" font-family="ui-monospace, 'JetBrains Mono', 'SFMono-Regular', Menlo, Consolas, monospace" font-size="10" font-weight="500" fill="#888888" letter-spacing="2.2" text-anchor="start" opacity="1">CG AGRO FARM</text>
<text x="145" y="289" font-family="Inter, ui-sans-serif, system-ui, 'Segoe UI', Roboto, Helvetica, Arial, sans-serif" font-size="42" font-weight="600" fill="#FFFFFF" letter-spacing="-1.8" text-anchor="start" opacity="1">Fresh produce,</text>
<text x="145" y="339" font-family="Inter, ui-sans-serif, system-ui, 'Segoe UI', Roboto, Helvetica, Arial, sans-serif" font-size="42" font-weight="600" fill="#4ADE80" letter-spacing="-1.8" text-anchor="start" opacity="1">straight from the farm</text>
<line x1="145" y1="363" x2="485" y2="363" stroke="#3A3A3A" stroke-width="5" stroke-linecap="round" opacity="1"/>,<line x1="145" y1="375" x2="465" y2="375" stroke="#3A3A3A" stroke-width="5" stroke-linecap="round" opacity="1"/>,<line x1="145" y1="387" x2="445" y2="387" stroke="#3A3A3A" stroke-width="5" stroke-linecap="round" opacity="1"/>,<line x1="145" y1="399" x2="365" y2="399" stroke="#3A3A3A" stroke-width="5" stroke-linecap="round" opacity="1"/>
<rect x="145" y="445" width="132" height="38" rx="8" fill="#4ADE80" opacity="1"/>
<text x="211" y="469" font-family="ui-monospace, 'JetBrains Mono', 'SFMono-Regular', Menlo, Consolas, monospace" font-size="9.5" font-weight="500" fill="#0D0D0D" letter-spacing="1.3" text-anchor="middle" opacity="1">GET STARTED</text>
<rect x="720" y="177" width="569.36" height="324" rx="12" fill="#3A3A3A" opacity="0.5"/>
<circle cx="1004.68" cy="339" r="78" fill="#4ADE80" opacity="0.22"/>
<text x="145" y="573" font-family="ui-monospace, 'JetBrains Mono', 'SFMono-Regular', Menlo, Consolas, monospace" font-size="9.5" font-weight="500" fill="#888888" letter-spacing="2" text-anchor="start" opacity="1">WHAT WE DO</text>
<rect x="145" y="599" width="367.3333333333333" height="210" rx="12" fill="#1A1A1A" stroke="#3A3A3A" stroke-width="1" opacity="1"/>
<rect x="145" y="599" width="367.3333333333333" height="96" rx="12" fill="#4ADE80" opacity="0.16"/>
<text x="165" y="625" font-family="ui-monospace, 'JetBrains Mono', 'SFMono-Regular', Menlo, Consolas, monospace" font-size="10" font-weight="500" fill="#4ADE80" letter-spacing="1.6" text-anchor="start" opacity="1">01</text>
<text x="165" y="665" font-family="ui-monospace, 'JetBrains Mono', 'SFMono-Regular', Menlo, Consolas, monospace" font-size="12" font-weight="500" fill="#FFFFFF" letter-spacing="0.6" text-anchor="start" opacity="1">SERVICE</text>
<line x1="165" y1="721" x2="492.3333333333333" y2="721" stroke="#3A3A3A" stroke-width="5" stroke-linecap="round" opacity="1"/>,<line x1="165" y1="735" x2="468.3333333333333" y2="735" stroke="#3A3A3A" stroke-width="5" stroke-linecap="round" opacity="1"/>,<line x1="165" y1="749" x2="444.3333333333333" y2="749" stroke="#3A3A3A" stroke-width="5" stroke-linecap="round" opacity="1"/>
<text x="165" y="783" font-family="ui-monospace, 'JetBrains Mono', 'SFMono-Regular', Menlo, Consolas, monospace" font-size="9" font-weight="500" fill="#4ADE80" letter-spacing="1.6" text-anchor="start" opacity="1">LEARN MORE</text>,<rect x="536.3333333333333" y="599" width="367.3333333333333" height="210" rx="12" fill="#1A1A1A" stroke="#3A3A3A" stroke-width="1" opacity="1"/>
<rect x="536.3333333333333" y="599" width="367.3333333333333" height="96" rx="12" fill="#3A3A3A" opacity="0.6"/>
<text x="556.3333333333333" y="625" font-family="ui-monospace, 'JetBrains Mono', 'SFMono-Regular', Menlo, Consolas, monospace" font-size="10" font-weight="500" fill="#888888" letter-spacing="1.6" text-anchor="start" opacity="1">02</text>
<text x="556.3333333333333" y="665" font-family="ui-monospace, 'JetBrains Mono', 'SFMono-Regular', Menlo, Consolas, monospace" font-size="12" font-weight="500" fill="#FFFFFF" letter-spacing="0.6" text-anchor="start" opacity="1">SUPPORT</text>
<line x1="556.3333333333333" y1="721" x2="883.6666666666665" y2="721" stroke="#3A3A3A" stroke-width="5" stroke-linecap="round" opacity="1"/>,<line x1="556.3333333333333" y1="735" x2="859.6666666666665" y2="735" stroke="#3A3A3A" stroke-width="5" stroke-linecap="round" opacity="1"/>,<line x1="556.3333333333333" y1="749" x2="835.6666666666665" y2="749" stroke="#3A3A3A" stroke-width="5" stroke-linecap="round" opacity="1"/>
<text x="556.3333333333333" y="783" font-family="ui-monospace, 'JetBrains Mono', 'SFMono-Regular', Menlo, Consolas, monospace" font-size="9" font-weight="500" fill="#888888" letter-spacing="1.6" text-anchor="start" opacity="1">LEARN MORE</text>,<rect x="927.6666666666666" y="599" width="367.3333333333333" height="210" rx="12" fill="#1A1A1A" stroke="#3A3A3A" stroke-width="1" opacity="1"/>
<rect x="927.6666666666666" y="599" width="367.3333333333333" height="96" rx="12" fill="#3A3A3A" opacity="0.6"/>
<text x="947.6666666666666" y="625" font-family="ui-monospace, 'JetBrains Mono', 'SFMono-Regular', Menlo, Consolas, monospace" font-size="10" font-weight="500" fill="#888888" letter-spacing="1.6" text-anchor="start" opacity="1">03</text>
<text x="947.6666666666666" y="665" font-family="ui-monospace, 'JetBrains Mono', 'SFMono-Regular', Menlo, Consolas, monospace" font-size="12" font-weight="500" fill="#FFFFFF" letter-spacing="0.6" text-anchor="start" opacity="1">DELIVERY</text>
<line x1="947.6666666666666" y1="721" x2="1275" y2="721" stroke="#3A3A3A" stroke-width="5" stroke-linecap="round" opacity="1"/>,<line x1="947.6666666666666" y1="735" x2="1251" y2="735" stroke="#3A3A3A" stroke-width="5" stroke-linecap="round" opacity="1"/>,<line x1="947.6666666666666" y1="749" x2="1227" y2="749" stroke="#3A3A3A" stroke-width="5" stroke-linecap="round" opacity="1"/>
<text x="947.6666666666666" y="783" font-family="ui-monospace, 'JetBrains Mono', 'SFMono-Regular', Menlo, Consolas, monospace" font-size="9" font-weight="500" fill="#888888" letter-spacing="1.6" text-anchor="start" opacity="1">LEARN MORE</text>
<rect x="73" y="752" width="1294" height="96" rx="0" fill="#0D0D0D" opacity="1"/>
<line x1="73" y1="752" x2="1367" y2="752" stroke="#3A3A3A" stroke-width="1" opacity="1"/>
<text x="145" y="796" font-family="ui-monospace, 'JetBrains Mono', 'SFMono-Regular', Menlo, Consolas, monospace" font-size="12" font-weight="500" fill="#FFFFFF" letter-spacing="1.6" text-anchor="start" opacity="1">SITENAME</text>
<text x="145" y="820" font-family="ui-monospace, 'JetBrains Mono', 'SFMono-Regular', Menlo, Consolas, monospace" font-size="10" font-weight="500" fill="#888888" letter-spacing="0.4" text-anchor="start" opacity="1">Sustainable farming, honest supply</text>
<text x="1007" y="808" font-family="ui-monospace, 'JetBrains Mono', 'SFMono-Regular', Menlo, Consolas, monospace" font-size="10" font-weight="500" fill="#A1A1AA" letter-spacing="0.3" text-anchor="middle" opacity="1">Instagram</text>,<text x="1103" y="808" font-family="ui-monospace, 'JetBrains Mono', 'SFMono-Regular', Menlo, Consolas, monospace" font-size="10" font-weight="500" fill="#A1A1AA" letter-spacing="0.3" text-anchor="middle" opacity="1">Behance</text>,<text x="1199" y="808" font-family="ui-monospace, 'JetBrains Mono', 'SFMono-Regular', Menlo, Consolas, monospace" font-size="10" font-weight="500" fill="#A1A1AA" letter-spacing="0.3" text-anchor="middle" opacity="1">GitHub</text>,<text x="1295" y="808" font-family="ui-monospace, 'JetBrains Mono', 'SFMono-Regular', Menlo, Consolas, monospace" font-size="10" font-weight="500" fill="#A1A1AA" letter-spacing="0.3" text-anchor="middle" opacity="1">LinkedIn</text>
</svg>
